<?xml version="1.0" encoding="utf-8"?>
<!-- Generator: Adobe Illustrator 18.1.0, SVG Export Plug-In . SVG Version: 6.00 Build 0)  -->
<svg version="1.1" id="Layer_1" xmlns="http://www.w3.org/2000/svg" xmlns:xlink="http://www.w3.org/1999/xlink" x="0px" y="0px"
	 viewBox="0 0 237.9 237.9" enable-background="new 0 0 237.9 237.9" xml:space="preserve">
<g>
	<path fill="#50C960" d="M119,237.9c-31.8,0-61.6-12.4-84.1-34.8C12.4,180.6,0,150.7,0,119c0-31.8,12.4-61.6,34.8-84.1
		C57.3,12.4,87.2,0,119,0c31.8,0,61.6,12.4,84.1,34.8c22.5,22.5,34.8,52.3,34.8,84.1c0,31.8-12.4,61.6-34.8,84.1
		C180.6,225.5,150.7,237.9,119,237.9z"/>
</g>
<g>
	<path d="M55.7,88.8h13.7c4.8,0,8.1,0.8,10.5,2.5c4.3,2.4,5.7,6.9,5.7,11c0,6.2-3.5,9.4-7.1,11.2c9.5,2.9,10.2,11,10.2,13.5
		c-0.1,5.7-2.7,10.2-7.2,12.6c-3.2,1.9-6.2,2.5-11.4,2.5H55.7V88.8z M61.9,111.6h7.3c2.4,0,4.6-0.2,6.2-1c3.4-1.9,4.3-4.6,4.3-7.9
		c0-3.9-2.1-6.7-4.3-7.7c-1.4-0.7-3.2-1.4-6.6-1.4h-7V111.6z M61.9,136.6h8.9c2.2,0,4.5-0.2,6.5-1c3.2-1.4,5.5-4.1,5.6-8.8
		c0-4.3-2.3-7.7-5.7-9.2c-2.4-1-4.2-1.3-7.5-1.3h-7.8V136.6z"/>
	<path d="M186.9,88.8h29v5.5h-23.5v18h23.5v5.5h-23.5v18.8h23.5v5.5h-29V88.8z"/>
	<path d="M172.8,110"/>
	<g>
		<path fill="#FFFFFF" d="M39.8,142.1h-3.9l2.5-18.8h-9l-2.5,18.8H23l2.6-18.8h-8.3v-3.9h8.9l1.4-8.6h-7.9v-3.9H28l2.6-18h3.8
			l-2.6,18h9l2.6-18h3.8l-2.6,18h7.9v3.9h-8.4l-1.3,8.6H51v3.9h-8.7L39.8,142.1z M40.3,110.8h-9l-1.3,8.6h9L40.3,110.8z"/>
	</g>
	<g>
		<path d="M125.8,142.1V88.8h8.4l19.7,44.7l19.6-44.7h8.7v53.3h-6l0.1-47.3l-20.6,47.3h-3.8l-20.7-47.3l0.1,47.3H125.8z"/>
	</g>
	<polygon points="122.8,142.1 101.4,111.5 120.7,88.8 113.1,88.8 97.9,106.6 98,88.8 91.7,88.8 91.7,142.1 98,142.1 97.9,116.5 
		115.7,142.1 	"/>
</g>
<g>
	<path d="M178.5,159.2H176v-2.9h2.4V159.2z"/>
	<path d="M181.4,153.1c0-3.2,2.4-6.4,6.5-6.4c4.1,0,6.5,3.2,6.5,6.4s-2.4,6.4-6.5,6.4C183.8,159.5,181.4,156.4,181.4,153.1
		L181.4,153.1z M183.7,153.1c0,2.4,1.8,4.2,4.2,4.2c2.3,0,4.2-1.8,4.2-4.2s-1.8-4.2-4.2-4.2C185.5,148.9,183.7,150.7,183.7,153.1
		L183.7,153.1z"/>
	<path d="M196.7,147h2.2v1.8c0.7-1.4,2-2.1,3.6-2.1v2.3h-0.2c-2.2,0-3.3,1.2-3.3,3.6v6.6h-2.3V147z"/>
	<path d="M216,157.8c0,2.1-0.5,3.5-1.4,4.5c-1.1,1.3-3,2.2-5.1,2.2c-3.4,0-5.5-2-6-4h2.7c0.3,0.5,0.7,1,1.3,1.4
		c0.7,0.5,1.6,0.6,2.1,0.6c2,0,4.1-1.5,4.1-4.2v-1.3c-0.7,1.4-2.2,2.5-4.4,2.5c-3.6,0-6.3-2.8-6.3-6.4c0-3.8,2.7-6.5,6.3-6.5
		c2,0,3.7,1.1,4.4,2.4V147h2.3V157.8z M205.3,153.1c0,2.3,1.6,4.3,4.2,4.3c1.2,0,2.3-0.5,3-1.2c0.7-0.7,1.2-1.8,1.2-3
		c0-1-0.3-2.1-1-2.9c-0.7-0.8-1.7-1.4-3.2-1.4C207.2,148.9,205.3,150.6,205.3,153.1L205.3,153.1z"/>
</g>
</svg>
