<?xml version="1.0" encoding="utf-8"?>
<!-- Generator: Adobe Illustrator 18.1.0, SVG Export Plug-In . SVG Version: 6.00 Build 0)  -->
<svg version="1.1" id="Layer_1" xmlns="http://www.w3.org/2000/svg" xmlns:xlink="http://www.w3.org/1999/xlink" x="0px" y="0px"
	 viewBox="0 0 10 10" enable-background="new 0 0 10 10" xml:space="preserve">
<g>
	<path fill="#E6A75A" d="M5,9.5c-2.5,0-4.5-2-4.5-4.5s2-4.5,4.5-4.5s4.5,2,4.5,4.5S7.5,9.5,5,9.5z"/>
	<path fill="#C4975E" d="M5,1c2.2,0,4,1.8,4,4S7.2,9,5,9S1,7.2,1,5S2.8,1,5,1 M5,0C2.2,0,0,2.2,0,5s2.2,5,5,5s5-2.2,5-5S7.8,0,5,0
		L5,0z"/>
</g>
</svg>
